<?xml version="1.0" standalone="no"?><!DOCTYPE svg PUBLIC "-//W3C//DTD SVG 1.1//EN" "http://www.w3.org/Graphics/SVG/1.1/DTD/svg11.dtd">
<svg t="1615365480796" class="icon" viewBox="0 0 1024 1024" version="1.1" xmlns="http://www.w3.org/2000/svg" p-id="7370"
     width="16" height="16"><defs><style type="text/css"></style></defs><path d="M512 800c-247.42 0-448-71.63-448-160v160c0 88.37 200.58 160 448 160s448-71.63 448-160V640c0 88.37-200.58 160-448 160z" p-id="7371" fill="#1296db"></path><path d="M512 608c-247.42 0-448-71.63-448-160v160c0 88.37 200.58 160 448 160s448-71.63 448-160V448c0 88.37-200.58 160-448 160z" p-id="7372" fill="#1296db"></path><path d="M512 416c-247.42 0-448-71.63-448-160v160c0 88.37 200.58 160 448 160s448-71.63 448-160V256c0 88.37-200.58 160-448 160z" p-id="7373" fill="#1296db"></path><path d="M64 224a448 160 0 1 0 896 0 448 160 0 1 0-896 0Z" p-id="7374" fill="#1296db"></path></svg>