<?xml version="1.0" standalone="no"?><!DOCTYPE svg PUBLIC "-//W3C//DTD SVG 1.1//EN" "http://www.w3.org/Graphics/SVG/1.1/DTD/svg11.dtd">
<svg t="1615426946351" class="icon" viewBox="0 0 1030 1024" version="1.1" xmlns="http://www.w3.org/2000/svg"
     p-id="29227" width="18.10546875" height="18"><defs><style type="text/css"></style></defs><path d="M703.50417 0a328.472461 328.472461 0 0 0-327.952246 327.952246 318.545023 318.545023 0 0 0 6.676093 64.680073l2.991237 15.606452L0 793.458025v230.541975h269.211295v-133.868676h125.71864v-125.71864h124.201346v-126.412261h42.397528v-11.878244l38.66932 12.658567a317.591296 317.591296 0 0 0 101.87545 16.343423 327.605436 327.605436 0 0 0 1.473942-655.16752z m122.684052 274.413446a69.362008 69.362008 0 1 1-69.362008-69.362009 69.362008 69.362008 0 0 1 69.362008 69.362009z" p-id="29228" fill="#EAB31C"></path></svg>